<?xml version="1.0" encoding="utf-8"?>
<!-- Generator: Adobe Illustrator 26.3.1, SVG Export Plug-In . SVG Version: 6.00 Build 0)  -->
<svg version="1.1" id="Layer_1" xmlns="http://www.w3.org/2000/svg" xmlns:xlink="http://www.w3.org/1999/xlink" x="0px" y="0px"
	 viewBox="0 0 612 792" style="enable-background:new 0 0 612 792;" xml:space="preserve">
<style type="text/css">
	.st0{fill:none;stroke:#3F3F3F;stroke-width:10;stroke-miterlimit:10;}
	.st1{fill:none;stroke:#D3D3D3;stroke-width:19;stroke-linecap:round;stroke-miterlimit:10;}
	.st2{fill:#D3D3D3;stroke:#3F3F3F;stroke-width:10;stroke-miterlimit:10;}
</style>
<path class="st0" d="M358.67,212.53V46.14c0-1.8-2.18-2.69-3.45-1.41L336.48,63.7c-2.63,2.66-6.92,2.66-9.54,0l-17.41-17.63
	c-2.63-2.66-6.92-2.66-9.54,0L282.57,63.7c-2.63,2.66-6.92,2.66-9.54,0l-17.28-17.5c-2.63-2.66-6.92-2.66-9.54,0l-17.28,17.5
	c-2.63,2.66-6.92,2.66-9.54,0l-17.27-17.49c-2.63-2.66-6.92-2.66-9.54,0l-17.29,17.51c-2.62,2.65-6.89,2.66-9.52,0.02l-17.57-17.61
	c-2.62-2.62-6.87-2.63-9.49,0l-20.41,20.43c-1.26,1.26-1.96,2.96-1.96,4.74l0,188.93c0,18.49,14.99,33.47,33.47,33.47h127.7
	c8.88,0,17.39-3.53,23.67-9.8l47.7-47.7C355.14,229.92,358.67,221.41,358.67,212.53z"/>
<line class="st1" x1="161.13" y1="102.4" x2="313.86" y2="102.4"/>
<line class="st1" x1="161.12" y1="144.69" x2="313.85" y2="144.69"/>
<line class="st1" x1="161.12" y1="186.98" x2="313.85" y2="186.98"/>
<line class="st1" x1="161.12" y1="229.27" x2="254.29" y2="229.27"/>
<path class="st2" d="M277.49,293.7c8.88,0,17.39-3.53,23.67-9.8l47.7-47.7c6.28-6.28,9.8-14.79,9.8-23.67h-47.7
	c-18.49,0-33.47,14.99-33.47,33.47V293.7z"/>
</svg>
